<svg width="25" height="34" viewBox="0 0 25 34" fill="none" xmlns="http://www.w3.org/2000/svg">
<g clip-path="url(#clip0_3873_1850)">
<path d="M0 0.944794L2.80651 32.1486C2.89235 33.1041 7.0496 33.9247 12.0934 33.9952C17.1372 34.0657 21.3137 33.3621 21.4232 32.4066L25 1.28999L0 0.944794Z" fill="url(#paint0_linear_3873_1850)"/>
<g opacity="0.64">
<path opacity="0.64" d="M22.7221 7.23593C22.7559 7.20965 22.774 7.18457 22.774 7.15829C22.774 6.7247 18.1639 6.30904 12.4661 6.2302C6.76841 6.15137 2.14585 6.43804 2.13795 6.87282C2.13795 6.89909 2.15489 6.92537 2.18764 6.95165H2.10632L4.4464 31.3972C4.51868 32.1474 7.96104 32.79 12.1364 32.8485C16.3117 32.907 19.7687 32.3576 19.8602 31.6099L22.8045 7.2431L22.7221 7.23593Z" fill="#2A2C38"/>
</g>
<path d="M24.9648 1.19033C24.9717 0.636905 19.3975 0.111017 12.5145 0.0157225C5.63144 -0.0795721 0.0461086 0.291812 0.0392585 0.845233C0.0324085 1.39865 5.60664 1.92454 12.4896 2.01984C19.3727 2.11513 24.958 1.74375 24.9648 1.19033Z" fill="#868495"/>
<g opacity="0.51">
<path opacity="0.51" d="M22.8056 7.09505C22.8056 7.48683 18.1503 7.74124 12.4153 7.66241C6.68027 7.58358 2.04529 7.20016 2.04981 6.80838C2.05433 6.4166 6.70512 6.16099 12.4401 6.24102C18.1751 6.32105 22.8135 6.70207 22.8056 7.09505Z" fill="#2A2C38"/>
</g>
<path d="M10.7619 18.5426C10.8244 17.6802 10.8684 16.8174 10.894 15.9542C10.9087 15.4765 10.2028 15.4406 10.1881 15.9232C10.1648 16.7115 10.1272 17.4995 10.0752 18.287L8.32692 18.2106C8.34273 17.6492 8.35817 17.0886 8.37322 16.5288C8.38565 16.051 7.67978 16.0152 7.66623 16.4977C7.62633 17.9502 7.58868 19.403 7.55329 20.8563C7.53974 21.334 8.2456 21.3699 8.25916 20.8873C8.27647 20.2447 8.29379 19.6013 8.31111 18.9571L10.0244 19.0323C9.96339 19.8016 9.8881 20.5688 9.7985 21.334C9.74316 21.8118 10.449 21.8393 10.5044 21.3651C10.6015 20.5338 10.6821 19.7008 10.7461 18.8663C10.7689 18.8162 10.7821 18.7617 10.7848 18.7061C10.7875 18.6506 10.7797 18.595 10.7619 18.5426Z" fill="#2A2C38"/>
<path d="M12.3509 24.0729C12.2944 24.0729 11.8381 24.0251 11.6665 24.0036C11.7615 23.9249 11.8485 23.8361 11.9262 23.7384C11.9928 23.6644 12.064 23.5951 12.1295 23.5187C12.4017 23.1985 12.605 22.802 12.4977 22.3612C12.3068 21.5753 11.2667 21.5251 11.078 22.3385C10.9651 22.8044 11.6427 23.0349 11.7557 22.5667C11.8788 22.5667 11.8844 22.6443 11.7715 22.796C11.7121 22.901 11.6391 22.9967 11.5546 23.0803C11.4553 23.1914 11.3491 23.2965 11.2554 23.4135C11.0848 23.6297 10.9165 23.8985 10.9504 24.1947C11.0261 24.8553 11.8765 24.7704 12.326 24.8194C12.7755 24.8684 12.8015 24.1278 12.3509 24.0729Z" fill="#2A2C38"/>
<path d="M15.5245 16.5145C15.521 16.4269 15.485 16.3444 15.4244 16.2847C15.3637 16.225 15.2832 16.193 15.2004 16.1956C14.0146 16.18 13.4137 18.0386 13.3832 19.0539C13.3482 20.1886 13.87 21.5765 15.118 21.5933C16.3433 21.61 17.0933 20.3928 17.1972 19.2199C17.2875 18.1986 16.5726 16.6996 15.5245 16.5145ZM16.4721 19.3501C16.3592 20.0895 15.8396 20.9518 15.022 20.8372C14.2043 20.7225 14.0462 19.6308 14.0959 18.9404C14.1213 18.5944 14.2023 18.2555 14.3353 17.9383C14.4358 17.6994 14.6572 17.2216 14.9305 17.0269C14.9652 17.0973 15.0197 17.1546 15.0864 17.1909C15.1531 17.2273 15.2288 17.2409 15.3032 17.2299C15.6849 17.181 16.1242 17.8272 16.2914 18.127C16.4884 18.4986 16.5525 18.9327 16.4721 19.3501Z" fill="#2A2C38"/>
</g>
<defs>
<linearGradient id="paint0_linear_3873_1850" x1="45.8333" y1="64.6068" x2="-14.8786" y2="61.1183" gradientUnits="userSpaceOnUse">
<stop stop-color="#983BCB"/>
<stop offset="1" stop-color="#4023D7"/>
</linearGradient>
<clipPath id="clip0_3873_1850">
<rect width="25" height="34" fill="white"/>
</clipPath>
</defs>
</svg>
