<svg width="184" height="291" viewBox="0 0 184 291" fill="none" xmlns="http://www.w3.org/2000/svg">
<path d="M95.8261 120.128C95.6465 123.695 95.1846 127.827 94.5174 132.395C93.3113 140.453 91.4636 149.64 89.385 158.57C84.8171 179.048 79.3768 197.935 79.3768 197.935C78.9112 209.998 77.5301 222.008 75.2452 233.862C75.0143 235.171 74.7833 236.428 74.5267 237.711C73.7568 241.843 72.9357 245.821 72.1658 249.49C69.3173 262.527 66.7255 271.944 66.7255 271.944L54.2281 269.789C53.6379 262.706 53.4069 255.931 53.4326 249.593C53.4326 245.641 53.4326 241.894 53.6892 238.25C53.6892 236.351 53.8945 234.504 54.0228 232.733C55.4855 211.126 59.1552 196.806 59.1552 193.958C59.1552 179.51 60.1047 166.91 61.2595 156.158C64.4929 126.518 70.2155 111.07 70.2155 111.07C78.299 92.4904 90.4115 93.7735 94.4147 107.451C95.5721 111.572 96.0489 115.854 95.8261 120.128Z" fill="#4A1C08"/>
<path d="M135.576 253.545C135.576 258.677 135.268 264.092 134.806 269.686L122.309 272.073C122.309 272.073 120.102 263.989 117.51 252.39C116.56 248.13 115.56 243.408 114.61 238.43C114.353 237.019 114.071 235.556 113.815 234.119C111.516 222.18 110.127 210.084 109.657 197.935C109.657 197.935 104.166 178.869 99.5465 158.288C97.5449 149.46 95.6972 140.324 94.4141 132.343C93.7212 127.801 93.285 123.618 93.1053 120.077C92.8308 115.757 93.2731 111.422 94.4141 107.246C98.4687 93.5683 110.555 92.3108 118.639 110.864C118.639 110.864 124.336 126.262 127.544 155.722C128.898 168.354 129.609 181.048 129.674 193.753C129.674 196.601 133.369 210.638 134.806 231.938C134.806 233.734 135.037 235.556 135.14 237.429C135.55 242.536 135.653 247.874 135.576 253.545Z" fill="#4A1C08"/>
<path d="M134.986 232.04C127.962 233.104 120.886 233.798 113.789 234.119C111.5 222.179 110.118 210.084 109.658 197.935C109.658 197.935 104.166 178.869 99.5468 158.288C97.5451 149.46 95.6975 140.324 94.4144 132.343C93.2083 140.401 91.3606 149.588 89.282 158.519C84.8168 179.048 79.3765 197.935 79.3765 197.935C78.9109 209.998 77.5297 222.008 75.2449 233.862C67.5463 233.503 60.1813 233.015 54.0225 232.502C55.4852 210.895 59.1549 196.575 59.1549 193.727C59.1549 179.279 60.1043 166.679 61.2591 155.927C64.4925 126.287 70.2152 110.839 70.2152 110.839C78.2987 92.2594 90.4111 93.5425 94.4144 107.22C97.4938 96.776 105.269 93.5682 112.378 100.908C115.031 103.825 117.15 107.187 118.639 110.839C120.236 115.557 121.555 120.363 122.591 125.235C124.854 135.327 126.542 145.54 127.647 155.824C129.001 168.457 129.711 181.15 129.777 193.855C129.802 196.704 133.472 210.766 134.986 232.04Z" fill="#8A510F"/>
<path d="M122.694 125.363C115.663 117.69 84.8425 115.817 84.8425 115.817L112.48 101.164C115.134 104.082 117.253 107.444 118.742 111.095C120.333 115.771 121.653 120.535 122.694 125.363Z" fill="#4D424C"/>
<path d="M68.3671 284.673C68.3813 284.801 68.3813 284.93 68.3671 285.058C67.9566 290.832 63.2348 289.959 56.2547 290.19C50.6861 290.19 47.7093 287.085 48.0429 283.723C48.1523 282.705 48.5236 281.733 49.1207 280.9C50.7098 278.417 51.8721 275.684 52.5594 272.817C52.8615 271.519 53.5941 270.361 54.638 269.532C59.0262 265.991 63.2348 268.711 65.339 270.661C66.2795 271.501 66.9344 272.614 67.2124 273.843C68.0033 277.398 68.3907 281.031 68.3671 284.673Z" fill="#231928"/>
<path d="M132.856 290.062C125.696 290.062 120.82 290.883 120.692 284.673V284.134C120.678 280.731 121.057 277.339 121.821 274.023C122.116 272.615 122.854 271.338 123.925 270.379C125.131 268.994 126.792 268.086 128.608 267.817C130.424 267.549 132.277 267.939 133.831 268.916C135.217 269.874 136.203 271.308 136.602 272.945C137.297 275.682 138.442 278.283 139.99 280.644C140.325 281.127 140.593 281.654 140.785 282.209C142.017 286.11 139.117 290.164 132.856 290.062Z" fill="#231928"/>
<path d="M107.399 20.8679C108.083 20.0691 108.52 19.0882 108.656 18.0451C108.729 16.3861 109.031 14.7452 109.555 13.1693C110.017 12.4717 110.396 11.7224 110.684 10.9367C110.779 10.5188 110.767 10.0838 110.651 9.67136C110.534 9.25897 110.316 8.88233 110.017 8.57581C109.58 8.13956 108.964 7.83162 108.759 7.24139C108.707 6.86681 108.707 6.48684 108.759 6.11226C108.68 5.55725 108.462 5.03118 108.125 4.58266C107.789 4.13414 107.345 3.77763 106.834 3.54607C105.788 3.03542 104.673 2.68094 103.524 2.49393C102.394 2.35338 101.313 1.94901 100.368 1.31348C99.979 0.950915 99.5581 0.624514 99.1102 0.338325C98.2595 -0.0263383 97.3119 -0.0985395 96.4157 0.13303C94.714 0.428058 93.052 0.918895 91.463 1.59576C90.8898 1.89652 90.2761 2.11262 89.641 2.23731C88.6915 2.23731 87.6907 2.05768 86.7412 2.23731C86.0299 2.46416 85.3767 2.84345 84.8271 3.34871C84.2776 3.85398 83.8448 4.47306 83.5591 5.16277C83.3863 5.56044 83.1226 5.91202 82.7892 6.18925C82.3697 6.40295 81.9195 6.55012 81.4548 6.6255C80.8674 6.85633 80.3453 7.22713 79.9339 7.70567C79.5224 8.1842 79.2341 8.75599 79.0939 9.37133C78.8512 10.643 78.8512 11.949 79.0939 13.2206C79.1405 14.4778 79.2777 15.7299 79.5045 16.9673C82.0707 27.232 82.8149 24.3836 82.8149 24.3836L90.5135 23.5881C94.0035 23.2031 97.4679 22.7925 100.932 22.305C102.318 22.0997 103.704 21.8174 105.089 21.5864C105.922 21.6393 106.744 21.3835 107.399 20.8679Z" fill="#231928"/>
<path d="M82.0967 19.9184C81.842 19.5685 81.5081 19.2837 81.1223 19.0874C80.7365 18.8911 80.3098 18.7888 79.877 18.7888C79.4441 18.7888 79.0174 18.8911 78.6317 19.0874C78.2459 19.2837 77.912 19.5685 77.6572 19.9184C75.5273 22.6642 79.4536 27.617 82.3534 27.7709C82.4258 25.1506 82.3402 22.5283 82.0967 19.9184Z" fill="#4C3429"/>
<path d="M124.413 49.5579C121.614 56.805 119.358 64.2504 117.664 71.8325C117.459 72.8076 117.305 73.7571 117.125 74.681C116.946 75.6048 116.869 76.2977 116.766 77.0419C116.663 77.7861 116.766 78.094 116.561 78.8125C115.765 86.5111 114.277 107.888 113.994 111.532C113.994 111.891 113.994 112.07 113.994 112.07C94.0551 118.204 72.9353 113.328 72.9353 113.328L72.7813 112.199C72.3194 108.657 68.0082 70.7803 67.8542 69.2663C66.9561 60.2589 66.3145 51.9701 66.2632 46.8121C66.2632 46.0422 66.9304 45.606 67.9312 45.3237C69.5479 44.8618 71.8318 44.7848 73.6282 44.4768C76.9735 43.9177 80.3502 43.5663 83.739 43.4247H84.5602C84.7311 43.4145 84.9025 43.4145 85.0734 43.4247H85.6893L86.3308 33.1599H87.3316C87.9855 33.2612 88.646 33.3127 89.3076 33.3139C90.0966 33.3252 90.8854 33.2823 91.6685 33.1856L92.772 33.0573C93.3109 33.0573 93.7985 32.8776 94.286 32.7493C95.0728 32.5679 95.8448 32.3277 96.5956 32.0308C96.8265 31.981 97.0506 31.9035 97.2628 31.7998H97.4681L97.9814 31.5689C98.9233 31.1598 99.8327 30.6794 100.702 30.1318L101.908 29.3106L102.113 29.131C102.276 29.0239 102.431 28.9038 102.575 28.7717L102.857 28.5408C102.857 28.9257 102.857 29.0797 102.857 29.2336C102.633 31.2277 102.513 33.232 102.498 35.2385C102.498 36.7013 102.498 38.164 102.498 39.4471C102.498 41.6284 102.498 43.2194 102.498 43.2194H103.935C103.961 43.2006 103.993 43.1905 104.025 43.1905C104.057 43.1905 104.088 43.2006 104.115 43.2194C106.195 43.2475 108.271 43.4276 110.325 43.7583C114.228 44.271 118.065 45.2001 121.77 46.5298C122.335 46.7608 122.745 46.9661 123.104 47.1457C123.464 47.3253 124.593 49.096 124.413 49.5579Z" fill="#4A1C08"/>
<path d="M102.96 28.5665C102.669 30.4137 101.972 32.1734 100.919 33.719C99.8663 35.2645 98.484 36.5575 96.8716 37.5047C95.2593 38.452 93.457 39.0301 91.5944 39.1974C89.7319 39.3646 87.8554 39.1169 86.1001 38.472L86.4337 33.16C89.3566 33.6193 92.3441 33.447 95.1948 32.6547C98.0455 31.8623 100.693 30.4683 102.96 28.5665Z" fill="#4C3429"/>
<path d="M82.3787 12.1942C80.9417 13.7852 80.916 17.3266 80.916 21.0475C80.916 32.5698 84.4574 36.0598 90.3596 36.4447C96.2619 36.8296 102.369 34.4431 103.191 23.6137C103.678 18.2504 104.191 13.349 102.19 11.0394C99.29 7.88296 86.7413 7.34406 82.3787 12.1942Z" fill="#4A1C08"/>
<path d="M102.446 22.2793C102.446 22.2793 104.089 17.4548 107.014 19.8927C109.94 22.3306 106.219 29.6699 101.882 29.2593C101.856 29.2593 101.112 23.9473 102.446 22.2793Z" fill="#4A1C08"/>
<path d="M105.757 22.0997C105.097 22.3339 104.512 22.7417 104.063 23.2801C103.54 23.743 103.12 24.3114 102.832 24.9481C102.832 25.1278 103.037 25.2304 103.165 25.1278C103.293 25.0251 103.807 24.3322 104.14 23.973C104.368 24.244 104.659 24.4554 104.987 24.5889C105.045 24.6147 105.11 24.6202 105.172 24.6045C105.233 24.5889 105.288 24.5529 105.326 24.5025C105.365 24.452 105.385 24.3901 105.384 24.3266C105.383 24.2631 105.361 24.2018 105.321 24.1526C105.142 23.8884 104.905 23.6689 104.628 23.5111C105.1 23.1867 105.546 22.8264 105.962 22.4333C105.991 22.4003 106.008 22.359 106.012 22.3154C106.015 22.2719 106.005 22.2283 105.982 22.1911C105.959 22.1539 105.925 22.125 105.885 22.1085C105.844 22.0921 105.799 22.089 105.757 22.0997Z" fill="#4C3429"/>
<path d="M85.9718 20.6113C85.9718 20.6113 84.9967 20.9962 85.0737 19.2512C85.1507 17.5062 85.8948 17.8398 85.8948 17.8398C85.8948 17.8398 86.5877 17.8398 86.5107 19.1999C86.4337 20.56 85.9718 20.6113 85.9718 20.6113Z" fill="#231928"/>
<path d="M96.0571 20.3033C96.0571 20.3033 95.0819 20.6882 95.1846 18.9176C95.2872 17.1469 95.9801 17.5318 95.9801 17.5318C95.9801 17.5318 96.673 17.5318 96.6216 18.8919C96.5703 20.252 96.0571 20.3033 96.0571 20.3033Z" fill="#231928"/>
<path d="M90.6931 25.1791C90.1798 25.1791 89.025 25.4357 88.7684 24.8968C88.8371 23.6694 89.0524 22.4547 89.41 21.2785C89.826 19.6972 90.1601 18.0955 90.4108 16.4797C90.4108 16.4797 90.4108 16.4797 90.2312 16.4797C89.2956 19.3353 88.5919 22.2617 88.1269 25.2304C88.1141 25.2663 88.1104 25.3049 88.1162 25.3425C88.1219 25.3802 88.1368 25.4159 88.1597 25.4464C88.1826 25.4769 88.2126 25.5012 88.2472 25.5173C88.2818 25.5333 88.3198 25.5406 88.3578 25.5384C89.102 25.5384 89.8206 25.5384 90.5648 25.5384C90.847 25.6154 90.8984 25.2048 90.6931 25.1791Z" fill="#4C3429"/>
<path d="M87.9478 15.2993C87.333 15.2476 86.7149 15.2476 86.1001 15.2993C85.4685 15.1509 84.8239 15.065 84.1755 15.0427C84.1016 15.0435 84.0295 15.0657 83.9678 15.1065C83.9062 15.1472 83.8575 15.2049 83.8278 15.2725C83.798 15.3402 83.7883 15.415 83.7999 15.488C83.8115 15.561 83.8439 15.6291 83.8932 15.6842C84.4897 16.1056 85.179 16.3769 85.9027 16.4752C86.6264 16.5735 87.3632 16.4958 88.0504 16.2488C88.1573 16.2144 88.249 16.1443 88.3101 16.0502C88.3712 15.9561 88.3979 15.8438 88.3859 15.7322C88.3738 15.6207 88.3237 15.5167 88.2439 15.4378C88.164 15.359 88.0595 15.31 87.9478 15.2993Z" fill="#231928"/>
<path d="M98.7768 13.9392C97.9125 14.4243 96.9628 14.738 95.9796 14.863C95.3381 14.863 94.5682 14.7347 94.055 15.1709C94.0229 15.2207 94.0059 15.2786 94.0059 15.3377C94.0059 15.3969 94.0229 15.4548 94.055 15.5045C95.0558 16.9673 98.3405 15.2479 99.1873 14.2215C99.213 14.0418 98.9564 13.8622 98.7768 13.9392Z" fill="#231928"/>
<path d="M94.4652 28.1815C93.3843 28.0275 92.287 28.0275 91.2061 28.1815C90.4619 28.1815 89.4098 28.0532 88.8708 28.6691C89.4611 29.208 90.4619 28.977 91.2061 28.9514C92.29 29.0543 93.3812 29.0543 94.4652 28.9514C94.5672 28.9514 94.6651 28.9108 94.7373 28.8386C94.8095 28.7665 94.8501 28.6685 94.8501 28.5665C94.8501 28.4644 94.8095 28.3665 94.7373 28.2943C94.6651 28.2221 94.5672 28.1815 94.4652 28.1815Z" fill="#4C3429"/>
<path d="M182.332 161.803H2.31353C1.87115 161.803 1.44688 161.628 1.13406 161.315C0.821245 161.002 0.645508 160.578 0.645508 160.135C0.645508 159.693 0.821245 159.269 1.13406 158.956C1.44688 158.643 1.87115 158.467 2.31353 158.467H182.332C182.775 158.467 183.199 158.643 183.512 158.956C183.824 159.269 184 159.693 184 160.135C184 160.578 183.824 161.002 183.512 161.315C183.199 161.628 182.775 161.803 182.332 161.803Z" fill="#231928"/>
<path d="M8.01059 168.732C7.25512 168.732 6.5306 168.432 5.99641 167.898C5.46222 167.364 5.16211 166.639 5.16211 165.884V154.31C5.16211 153.555 5.46222 152.83 5.99641 152.296C6.5306 151.762 7.25512 151.462 8.01059 151.462C8.76605 151.462 9.49057 151.762 10.0248 152.296C10.559 152.83 10.8591 153.555 10.8591 154.31V165.832C10.8694 166.212 10.8032 166.589 10.6644 166.942C10.5256 167.295 10.317 167.617 10.0511 167.888C9.78518 168.158 9.46744 168.373 9.11685 168.518C8.76626 168.663 8.39001 168.736 8.01059 168.732Z" fill="#231928"/>
<path d="M13.7074 178.817C12.9519 178.817 12.2274 178.517 11.6932 177.983C11.159 177.449 10.8589 176.724 10.8589 175.969V144.302C10.9264 143.59 11.257 142.928 11.7862 142.447C12.3153 141.966 13.0049 141.699 13.7202 141.699C14.4355 141.699 15.1251 141.966 15.6542 142.447C16.1834 142.928 16.514 143.59 16.5815 144.302V175.969C16.5747 176.727 16.2689 177.451 15.7307 177.985C15.1924 178.518 14.4652 178.817 13.7074 178.817Z" fill="#18111C"/>
<path d="M19.4296 183.59C19.0546 183.594 18.6827 183.522 18.3355 183.38C17.9884 183.239 17.673 183.029 17.4078 182.764C17.1426 182.498 16.933 182.183 16.791 181.836C16.6491 181.489 16.5777 181.117 16.5812 180.742V140.478C16.5812 139.723 16.8813 138.998 17.4155 138.464C17.9497 137.93 18.6742 137.63 19.4296 137.63C20.1851 137.63 20.9096 137.93 21.4438 138.464C21.978 138.998 22.2781 139.723 22.2781 140.478V180.742C22.2781 181.497 21.978 182.222 21.4438 182.756C20.9096 183.29 20.1851 183.59 19.4296 183.59Z" fill="#231928"/>
<path d="M174.146 168.732C174.901 168.732 175.626 168.432 176.16 167.898C176.694 167.364 176.994 166.639 176.994 165.884V154.31C176.994 153.555 176.694 152.83 176.16 152.296C175.626 151.762 174.901 151.462 174.146 151.462C173.39 151.462 172.666 151.762 172.132 152.296C171.597 152.83 171.297 153.555 171.297 154.31V165.832C171.291 166.211 171.359 166.587 171.499 166.938C171.639 167.29 171.848 167.61 172.113 167.88C172.378 168.15 172.695 168.364 173.044 168.51C173.393 168.657 173.767 168.732 174.146 168.732Z" fill="#231928"/>
<path d="M168.449 178.817C169.205 178.817 169.929 178.517 170.464 177.983C170.998 177.449 171.298 176.724 171.298 175.969V144.302C171.23 143.59 170.9 142.928 170.371 142.447C169.841 141.966 169.152 141.699 168.436 141.699C167.721 141.699 167.032 141.966 166.502 142.447C165.973 142.928 165.643 143.59 165.575 144.302V175.969C165.582 176.727 165.888 177.451 166.426 177.985C166.964 178.518 167.691 178.817 168.449 178.817Z" fill="#18111C"/>
<path d="M162.726 183.59C163.101 183.594 163.473 183.522 163.821 183.38C164.168 183.239 164.483 183.029 164.748 182.764C165.013 182.498 165.223 182.183 165.365 181.836C165.507 181.489 165.578 181.117 165.575 180.742V140.478C165.575 139.723 165.275 138.998 164.741 138.464C164.206 137.93 163.482 137.63 162.726 137.63C161.971 137.63 161.246 137.93 160.712 138.464C160.178 138.998 159.878 139.723 159.878 140.478V180.742C159.878 181.497 160.178 182.222 160.712 182.756C161.246 183.29 161.971 183.59 162.726 183.59Z" fill="#231928"/>
<path d="M77.4004 66.1869C76.3491 69.8521 74.8946 73.3894 73.0636 76.734C72.3194 78.2737 69.3169 84.7918 69.1886 85.0484C64.5181 95.2876 57.923 110.402 57.3328 112.199C55.87 117.998 52.7393 151.744 52.7136 151.744C49.5059 156.568 43.3983 154.31 43.3983 154.31C43.3983 154.31 43.3983 153.284 43.1161 151.539C42.4232 144.071 40.7808 123.079 42.6798 110.659C43.2187 107.22 45.246 98.8802 47.8122 89.4623C49.8652 81.7637 50.7633 74.4501 53.2012 66.9568C55.2547 60.5093 58.3493 54.4414 62.3625 48.9934C63.8659 47.2782 65.8367 46.0386 68.0338 45.4264C68.9833 45.4264 69.3939 46.6582 70.1894 47.0174C72.4497 48.0727 74.2666 49.8896 75.3218 52.1498C77.5579 56.467 78.2894 61.407 77.4004 66.1869Z" fill="#4A1C08"/>
<path d="M42.7822 157.774C42.7822 156.645 43.0132 155.491 43.0389 154.361C43.0389 152.591 43.0389 151.436 43.0389 151.436C44.1365 150.37 45.5371 149.669 47.0487 149.43C48.5602 149.191 50.1086 149.426 51.4816 150.102C52.0997 150.553 52.6676 151.069 53.1753 151.641C54.2018 152.616 55.3822 153.386 56.3574 154.413C56.8648 154.902 57.2535 155.501 57.4937 156.164C57.7339 156.827 57.8193 157.536 57.7431 158.236C56.5267 158.37 55.3981 158.935 54.5611 159.827C53.6116 161.008 54.0222 162.086 53.5602 163.394C53.0983 164.703 51.9692 164.832 50.9941 164.985C47.7093 165.473 43.0132 165.627 42.7309 161.393C42.6592 160.187 42.6764 158.978 42.7822 157.774Z" fill="#4A1C08"/>
<path d="M145.507 151.359C145.353 153.104 145.225 154.13 145.225 154.13C145.225 154.13 139.117 156.466 135.884 151.564C135.884 151.564 132.753 117.921 131.187 112.122C130.931 111.147 128.929 106.399 126.414 100.651C123.899 94.9026 115.816 77.3242 115.559 76.7339C113.717 73.3945 112.262 69.856 111.222 66.1869C110.248 61.3443 110.945 56.3145 113.198 51.9188C114.268 49.6686 116.081 47.8559 118.331 46.7864C119.125 46.3876 120.009 46.2019 120.897 46.2475C121.178 46.2467 121.457 46.299 121.718 46.4015C122.193 46.533 122.644 46.741 123.053 47.0174C123.681 47.4562 124.265 47.9547 124.798 48.5058C129.398 53.4077 132.798 59.311 134.729 65.7506C137.295 73.4492 138.809 81.738 140.759 89.1543C143.326 98.5723 145.327 106.912 145.892 110.351C147.842 122.9 146.174 143.891 145.507 151.359Z" fill="#4A1C08"/>
<path d="M145.738 157.8C145.738 156.517 145.584 155.234 145.559 154.361C145.559 152.591 145.559 151.436 145.559 151.436C144.467 150.369 143.071 149.667 141.563 149.428C140.055 149.189 138.51 149.424 137.142 150.102C136.521 150.559 135.945 151.074 135.422 151.641C134.421 152.616 133.215 153.386 132.266 154.413C131.754 154.899 131.362 155.497 131.121 156.161C130.881 156.825 130.798 157.535 130.88 158.236C132.057 158.546 133.206 158.95 134.319 159.442C135.268 160.418 134.55 161.29 134.55 162.419C134.55 163.985 135.628 164.524 137.116 164.78L139.99 165.293C141.515 165.66 143.116 165.525 144.558 164.908C144.765 164.79 144.948 164.633 145.097 164.447C145.219 164.259 145.306 164.05 145.353 163.831C145.844 161.86 145.975 159.817 145.738 157.8Z" fill="#4A1C08"/>
<path d="M117.664 71.8326L119.101 111.994C95.3892 121.257 69.7529 112.609 69.7529 112.609L69.1883 74.1165L68.4185 73.8855C67.2637 73.5263 66.0319 73.1413 64.7745 72.6281C64.0559 72.3458 63.3117 72.0635 62.5675 71.7043C59.3562 70.2373 56.2291 68.5924 53.2009 66.7772C55.2544 60.3297 58.3491 54.2618 62.3622 48.8138C63.8723 47.1065 65.8407 45.8685 68.0335 45.2468C69.6502 44.8105 71.9342 44.7079 73.7305 44.3999C77.0758 43.8408 80.4525 43.4894 83.8413 43.3478L93.1566 66.4436C97.1453 58.9156 100.651 51.1414 103.652 43.1682H103.909C103.935 43.1494 103.967 43.1393 103.999 43.1393C104.031 43.1393 104.062 43.1494 104.089 43.1682C106.169 43.1963 108.245 43.3764 110.299 43.7071C114.212 44.2381 118.057 45.1843 121.77 46.5299C122.245 46.6614 122.696 46.8694 123.104 47.1458C123.732 47.5846 124.317 48.083 124.849 48.6342C129.45 53.5361 132.85 59.4394 134.78 65.879C131.692 67.2948 128.532 68.5454 125.311 69.6256C121.051 70.9601 117.664 71.8326 117.664 71.8326Z" fill="#231928"/>
<path d="M69.1885 60.8493V74.1165L68.4187 73.8856C67.2639 73.5263 66.0321 73.1414 64.7747 72.6281C66.4474 68.7803 67.9206 64.8488 69.1885 60.8493Z" fill="#17101A"/>
<path d="M62.6449 275.819C60.6177 274.69 56.8197 273.818 54.9464 275.383C54.9103 275.446 54.8914 275.516 54.8914 275.588C54.8914 275.661 54.9103 275.731 54.9464 275.794V275.948C54.9464 276.153 55.2286 276.204 55.3826 276.127C55.5366 276.05 55.3826 276.127 55.5623 276.127C56.0011 275.848 56.5054 275.689 57.025 275.665C57.6888 275.635 58.3536 275.695 59.001 275.845C60.2041 276.2 61.444 276.415 62.6963 276.487C62.7848 276.48 62.8669 276.438 62.9246 276.371C62.9824 276.303 63.011 276.216 63.0042 276.127C62.9974 276.039 62.9557 275.957 62.8884 275.899C62.821 275.841 62.7334 275.813 62.6449 275.819Z" fill="#17101A"/>
<path d="M63.9538 279.438C62.8069 278.508 61.3754 278.001 59.8992 278.001C58.4374 277.651 56.9002 277.804 55.5366 278.437C55.357 278.591 55.2544 278.976 55.5366 279.104C56.7343 279.412 57.9708 279.542 59.2063 279.489C60.6811 279.897 62.1952 280.146 63.7228 280.233C63.8077 280.218 63.8866 280.18 63.9507 280.122C64.0148 280.064 64.0615 279.99 64.0855 279.907C64.1095 279.825 64.1099 279.737 64.0866 279.654C64.0634 279.571 64.0173 279.496 63.9538 279.438Z" fill="#17101A"/>
<path d="M133.035 274.434C131.657 273.675 130.079 273.357 128.515 273.522C126.95 273.687 125.474 274.328 124.284 275.358C124.028 275.691 124.284 276.333 124.669 276.281C125.978 276.281 127.236 275.511 128.519 275.383C129.802 275.255 131.213 275.742 132.548 275.588C133.061 275.537 133.523 274.921 133.035 274.434Z" fill="#17101A"/>
<path d="M134.113 277.795C132.433 277.395 130.695 277.3 128.981 277.513C128.376 277.435 127.761 277.486 127.177 277.663C126.593 277.84 126.053 278.139 125.594 278.54C125.234 279.002 125.594 279.874 126.235 279.643C128.801 278.745 131.701 280.079 134.242 279.155C134.381 279.095 134.497 278.992 134.574 278.862C134.651 278.731 134.685 278.58 134.671 278.429C134.657 278.278 134.595 278.135 134.495 278.022C134.395 277.908 134.261 277.829 134.113 277.795Z" fill="#17101A"/>
<path d="M45.5537 26.6675C36.9056 28.2586 27.9239 26.9241 19.5068 30.1575C18.9423 30.3885 18.9679 31.338 19.6608 31.2867C24.7932 31.0044 29.7973 29.9779 34.904 29.67C38.5993 29.439 42.9362 30.2345 46.2979 28.4125C47.2731 27.848 46.5545 26.4879 45.5537 26.6675Z" fill="#161818"/>
<path d="M48.6846 14.6321C44.4675 12.4594 40.1128 10.5649 35.6483 8.96079C34.8785 8.70417 34.4422 9.85896 35.1094 10.2696C39.1398 12.5927 43.3044 14.6749 47.5811 16.5054C48.8386 17.0443 49.9677 15.248 48.6846 14.6321Z" fill="#161818"/>
</svg>
